<svg height="51" viewBox="0 0 260 51" width="260" xmlns="http://www.w3.org/2000/svg"><g fill="none"><g transform="translate(0 .29)"><path d="m13.395 14.54c-.0000207 1.5852853-.9560583 3.0140853-2.4214504 3.6188624-1.46539214.604777-3.15086103.2661442-4.26895272-.8576887-1.1180917-1.1238328-1.44808778-2.811014-.83581351-4.2732894.61227428-1.4622755 2.04595206-2.4109828 3.63121663-2.4029357 2.1610527.0028061 3.9122453 1.7539987 3.915 3.9150514" fill="#fa6400"/><path d="m40.055 23.21c0 1.8253011-1.4796989 3.305-3.305 3.305s-3.305-1.4796989-3.305-3.305 1.4796989-3.305 3.305-3.305 3.305 1.4796989 3.305 3.305" fill="#fa6400"/><g fill="#509f6e"><path d="m30.865 8.665c0 6.775-3.655 9.555-4.57 10.145-2-5.76-.77-11.79-.725-12-1.57 3.65-1.07 8.22-.655 10.9-1.7379872-1.8506173-2.7253578-4.2816165-2.77-6.82 0-5.925 4.38-10.89 4.38-10.89s4.325 2.57 4.34 8.69"/><path d="m8.525 25.305c3.6321319-.8127853 7.4361312.0948615 10.31 2.46-5.19 3.2-11.735 3.535-11.95 3.535 4 1.045 9-1.14 11.5-2.14-1 1.4-3.655 4.345-6.81 5.04-5.14 1.14-11.575-1.925-11.575-1.925s1.125-5.2 8.5-6.97"/><path d="m38.835 37.39c-3.0445583.0400954-5.9366914-1.3293767-7.835-3.71 4.69-1.675 10-.83 10.145-.8-3.04-1.5-7.39-.615-9.56-.24 1.055-.945 3.66-2.85 6.295-2.87 4.305-.035 8.92 3.5 8.92 3.5s-1.775 3.965-8 4.12"/></g><path d="m23.54 45.095c6.565-30.555-16.975-42.83-16.975-42.83s10.435 9.98 12.27 18.86c0 0-7.05-3.42-11.65 1.625 0 0 7.685-4.295 12.94 5.155 4.25 7.64 3.415 17.19 3.415 17.19" fill="#000"/><path d="m27.71 49.445c-8.54-25.035 10.895-37.68 10.895-37.68s-8.605 10.365-8.735 16.78c0 0 5.58-3.55 9.81.5 0 0-7.17-2.85-10.655 5.615-2.815 6.84-1.315 14.785-1.315 14.785" fill="#000"/><path d="m19.255 43.405h-.42v-.195h1.055v.205h-.39v1.355h-.22zm.935-.205h.24l.45.805.45-.805h.235v1.56h-.21v-1.195l-.47.83-.46-.83v1.195h-.215z" fill="#000"/></g><g fill="#8f9293" transform="translate(53.5 39.5)"><path d="m.235 2.605v-.08c0-1.345.845-2.285 2.03-2.285s2.025.935 2.025 2.275v.075c0 1.34-.845 2.29-2.03 2.29s-2.025-.935-2.025-2.275m3.095 0v-.045c0-.885-.45-1.44-1.07-1.44s-1.07.55-1.07 1.435v.045c0 .885.455 1.44 1.075 1.44s1.065-.55 1.065-1.435"/><path d="m5.145.32h.925v1.93l1.47-1.93h1.095l-1.505 1.9 1.57 2.58h-1.09l-1.12-1.845-.42.525v1.32h-.925z"/><path d="m9.315.32h.93v3.63h1.81v.85h-2.74z"/><path d="m14.055.29h.885l1.605 4.5h-.96l-.33-.97h-1.545l-.325.97h-.935zm.915 2.72-.5-1.465-.47 1.455z"/><path d="m17.22.32h.93v1.795h1.475v-1.795h.925v4.48h-.925v-1.825h-1.475v1.825h-.93z"/><path d="m21.405 2.605v-.08c0-1.345.845-2.285 2.03-2.285s2 .935 2 2.275v.075c0 1.34-.845 2.29-2.03 2.29s-2.025-.935-2.025-2.275m3.095 0v-.045c0-.885-.45-1.44-1.07-1.44s-1.07.55-1.07 1.435v.045c0 .885.455 1.44 1.075 1.44s1.065-.55 1.065-1.435"/><path d="m26.315.32h.97l1 1.815.985-1.815h.98v4.48h-.905v-2.86l-1.06 1.85h-.02l-1.05-1.84v2.85h-.9z"/><path d="m32.535.29h.885l1.605 4.5h-.96l-.335-.97h-1.54l-.33.97h-.935zm.915 2.71-.5-1.465-.5 1.465z"/><path d="m36.925 4.2.575-.7c.2982055.29713617.694774.47496959 1.115.5.36 0 .575-.18.575-.44 0-.225-.125-.365-.77-.605-.79-.31-1.285-.61-1.285-1.38.0022907-.37481106.1626281-.73125622.4415593-.9816279.2789311-.25037167.6505592-.37142454 1.0234407-.3333721.5350117-.00391891 1.0521745.19224628 1.45.55l-.55.69c-.2618554-.24294354-.5987262-.38933244-.955-.415-.32 0-.5.16-.5.39 0 .26.155.38.855.67.78.305 1.205.64 1.205 1.335-.0006293.38422138-.1643469.75011115-.4504104 1.00661479s-.667574.37950172-1.0495896.33838521c-.6172553-.00024583-1.2110871-.23634762-1.66-.66"/><path d="m41.655 1.175h-1.13v-.855h3.175v.855h-1.125v3.625h-.92z"/><path d="m45.255.29h.88l1.61 4.5h-.96l-.335-.97h-1.54l-.33.97h-.935zm.915 2.72-.5-1.465-.5 1.465z"/><path d="m48.815 1.175h-1.125v-.855h3.175v.855h-1.125v3.625h-.925z"/><path d="m51.61.32h2.89v.835h-1.97v.97h1.73v.84h-1.73v.995h1.995v.84h-2.915z"/><path d="m56.865 3.06v-2.74h.93v2.745c0 .635.3.95.78.95s.78-.31.78-.93v-2.765h.925v2.72c0 1.235-.68 1.83-1.72 1.83s-1.695-.6-1.695-1.81"/><path d="m61.235.32h.85l1.72 2.61v-2.61h.905v4.48h-.79l-1.775-2.71v2.71h-.91z"/><path d="m65.76.32h.93v4.485h-.93z"/><path d="m67.39.32h1.01l.945 3.085.95-3.085h.98l-1.515 4.505h-.855z"/><path d="m71.945.32h2.89v.835h-1.965v.97h1.73v.84h-1.73v.995h1.99v.84h-2.915z"/><path d="m75.71.32h1.685c.4455192-.02637601.8830599.12667321 1.215.425.2616773.28127086.398701.65628321.38 1.04v.025c.0324805.57448185-.3027367 1.10641329-.835 1.325l.955 1.665h-1.065l-.825-1.47h-.585v1.47h-.925zm1.61 2.19c.1910149.02541371.3834597-.03523604.5253876-.16557796s.218707-.31693873.2096124-.50942204c0-.45-.28-.675-.75-.675h-.67v1.34z"/><path d="m79.5 4.2.55-.685c.2982055.29713617.694774.47496959 1.115.5.36 0 .575-.18.575-.44 0-.225-.125-.365-.765-.605-.795-.31-1.29-.61-1.29-1.38.0021498-.37577718.1631655-.73310783.4432396-.98365037.2800742-.25054255.6530654-.37091192 1.0267604-.33134963.5334653-.00363825 1.0489646.19257256 1.445.55l-.5.705c-.2618554-.24294354-.5987262-.38933244-.955-.415-.32 0-.5.16-.5.39 0 .26.15.38.85.67.78.305 1.205.64 1.205 1.335-.0006293.38422138-.1643469.75011115-.4504104 1.00661479s-.667574.37950172-1.0495896.33838521c-.6303531.01144349-1.2402871-.2235605-1.7-.655"/><path d="m83.515.32h.93v4.485h-.93z"/><path d="m86.345 1.175h-1.13v-.855h3.18v.855h-1.13v3.625h-.92z"/><path d="m90.185 3.035-1.465-2.715h1.055l.88 1.76.89-1.76h1.025l-1.46 2.7v1.78h-.925z"/></g><g fill="#000"><path d="m53.4 22.305h2.34l2.605 9.665 2.72-9.705h1.905l2.74 9.705 2.585-9.665h2.305l-3.885 13.395h-2l-2.715-9.4-2.7 9.4h-2z"/><path d="m72.575 22.305h8.39v2h-6.18v3.615h5.5v2h-5.5v3.69h6.26v2h-8.47z"/><path d="m83.38 22.305h2.21v11.28h5.71v2.04h-7.92z"/><path d="m93.335 22.305h2.205v11.28h5.71v2.04h-7.915z"/><path d="m103.285 22.305h2.035l5.88 8.865v-8.865h2.17v13.32h-1.87l-6.05-9.155v9.155h-2.165z"/><path d="m116.24 22.305h8.39v2h-6.185v3.615h5.5v2h-5.5v3.69h6.26v2h-8.465z"/><path d="m126.095 33.87 1.33-1.655c1 .895 2.095 1.58 3.5 1.58 1.275 0 2.11-.72 2.11-1.69 0-.86-.455-1.39-2.57-2.17-2.53-.95-3.825-1.885-3.825-4v-.04c0-2.185 1.735-3.73 4.205-3.73 1.546465-.0235617 3.044142.5411948 4.19 1.58l-1.26 1.695c-.818777-.764831-1.881108-1.2163219-3-1.275-1.2 0-1.94.665-1.94 1.54 0 .935.5 1.43 2.76 2.305 2.47.95 3.615 2 3.615 3.915v.04c0 2.34-1.83 3.8450309-4.32 3.8450309-1.790552.0053466-3.511926-.6911011-4.795-1.9400309z"/><path d="m136.39 33.87 1.33-1.655c1 .895 2.095 1.58 3.5 1.58 1.275 0 2.115-.72 2.115-1.69 0-.86-.46-1.39-2.57-2.17-2.53-.95-3.825-1.885-3.825-4v-.04c0-2.185 1.73-3.73 4.205-3.73 1.545097-.0242985 3.041474.5406419 4.185 1.58l-1.255 1.695c-.81925-.7641024-1.881304-1.2154752-3-1.275-1.195 0-1.94.665-1.94 1.54 0 .935.5 1.43 2.76 2.305 2.475.95 3.615 2 3.615 3.915v.04c0 2.34-1.825 3.8450556-4.32 3.8450556-1.792384.0071675-3.515987-.6894554-4.8-1.9400556z"/><path d="m158.875 34.195c-.935311 1.0197112-2.251372 1.6062364-3.635 1.62-2.245 0-3.955-1.5-3.955-3.71v-.06c0-1.675.95-2.93 2.605-3.825-.76-1.065-1.12-1.92-1.12-2.89v-.06c0-1.69 1.33-3.195 3.46-3.195.850892-.0555717 1.686563.2452545 2.306806.8304071.620243.5851527.969173 1.4019095.963194 2.2545929v.055c0 1.675-1.045 2.74-2.665 3.5l2.055 2.455c.431642-.7682923.802765-1.569049 1.11-2.395l1.675.725c-.39798 1.1031133-.909034 2.1620856-1.525 3.16l1.81 2.095-1.62 1.12zm-1.18-1.35-2.645-3.215c-.911.4212995-1.509499 1.317117-1.55 2.32v.05c-.020682.5329549.184784 1.0498384.565714 1.4231494.380929.3733111.901858.5682936 1.434286.5368506.854371-.0521487 1.648996-.4557964 2.195-1.115zm-.17-7.535v-.04c.027957-.3692635-.099894-.7333762-.352571-1.0041008-.252676-.2707246-.607117-.4233534-.977429-.4208992-.391031-.0037934-.765826.156131-1.033659.4410601-.267834.2849291-.404291.6688911-.376341 1.0589399v.035c0 .67.25 1.22.935 2.095 1.215-.55 1.805-1.235 1.805-2.165z"/><path d="m168.16 22.305h4.84c1.306089-.0699636 2.586533.3814288 3.56 1.255.748045.7956521 1.144484 1.8588288 1.1 2.95v.055c.079609 1.776477-1.054066 3.3813166-2.755 3.9l3.095 5.16h-2.55l-2.82-4.7h-2.26v4.7h-2.21zm4.585 6.64c1.715 0 2.665-.915 2.665-2.32 0-1.5-.97-2.305-2.645-2.305h-2.395v4.645z"/><path d="m180.05 22.305h8.395v2h-6.185v3.615h5.5v2h-5.5v3.69h6.24v2h-8.45z"/><path d="m190.305 29.04v-.135c0-4.035 2.5-6.79 5.955-6.79 1.58042-.0524746 3.106968.5778181 4.19 1.73l-1.335 1.695c-.744381-.8432794-1.805592-1.3394771-2.93-1.37-2.055 0-3.595 1.9-3.595 4.755v.075c0 2.895 1.58 4.78 3.615 4.78 1.18 0 2.035-.535 2.97-1.45l1.325 1.56c-1.115699 1.2497898-2.719886 1.9524198-4.395 1.925-3.4 0-5.8-2.705-5.8-6.775z"/><path d="m201.645 29.075v-.19c0-4 2.455-6.81 5.92-6.81s5.88 2.815 5.88 6.775v.19c0 3.955-2.44 6.81-5.9 6.81s-5.9-2.815-5.9-6.775zm9.5-.035v-.135c0-2.87-1.525-4.775-3.615-4.775s-3.615 1.885-3.615 4.755v.115c0 2.875 1.54 4.775 3.635 4.775s3.61-1.865 3.61-4.735z"/><path d="m214.165 22.305h2.395l3.275 10.045 3.275-10.045h2.34l-4.625 13.395h-2.055z"/><path d="m227.33 22.305h8.39v2h-6.185v3.615h5.5v2h-5.5v3.69h6.26v2h-8.465z"/><path d="m238.135 22.305h4.815c1.30285-.0683809 2.579602.3829778 3.55 1.255.750011.7944295 1.14677 1.8584655 1.1 2.95v.055c.079609 1.776477-1.054066 3.3813166-2.755 3.9l3.155 5.16h-2.57l-2.815-4.7h-2.265v4.7h-2.21zm4.585 6.64c1.715 0 2.665-.915 2.665-2.32 0-1.5-.97-2.305-2.645-2.305h-2.395v4.645z"/><path d="m252.865 30.315-4.5-8h2.5l3.135 5.755 3.1-5.765h2.455l-4.47 8v5.32h-2.225z"/><path d="m54 7h1.62l4.675 7.05v-7.05h1.705v10.58h-1.5l-4.795-7.275v7.275h-1.705z"/><path d="m63.64 15.28v-.09c0-1.71 1.18-2.555 2.875-2.555.6250489-.0028486 1.2453167.109003 1.83.33v-.345c0-1.075-.635-1.635-1.725-1.635-.6697699.0179657-1.3265412.1889999-1.92.5l-.5-1.365c.8171508-.42296268 1.7248923-.64088926 2.645-.635.8625567-.05724331 1.7122228.23257926 2.36.805.5613171.6358195.8472599 1.4684705.795 2.315v4.975h-1.68v-1c-.4987045.7334244-1.338592 1.159974-2.225 1.13-.6553829.0297167-1.2933508-.2158831-1.7596207-.6774048-.4662698-.4615217-.7183865-1.0969424-.6953793-1.7525952zm4.72-.39v-.82c-.4795577-.1799706-.9877862-.2714517-1.5-.270017-1 0-1.555.500017-1.555 1.345017v.045c-.013813.3448752.1203119.6792344.368631.9189579.2483192.2397235.5871941.3619911.931369.3360421.4421.0401811.8811727-.1039623 1.213434-.3983591.3322613-.2943967.5282232-.7129192.541566-1.1566409z"/><path d="m72.11 15.63v-4.6h-.86v-1.465h.86v-2.165h1.725v2.165h1.785v1.465h-1.785v4.265c0 .62.305.88.85.88.3192027.0007579.6341933-.0728541.92-.215v1.395c-.4362041.2341172-.9250022.3528745-1.42.345-1.185 0-2.075-.495-2.075-2.07z"/><path d="m77.21 6.72h1.815v1.68h-1.815zm.045 2.845h1.745v8h-1.725z"/><path d="m80.645 13.66v-.135c0-2.36 1.575-4.115 3.705-4.115s3.65 1.725 3.65 4.09v.135c0 2.36-1.56 4.12-3.68 4.12s-3.675-1.715-3.675-4.095zm5.675-.03v-.09c0-1.5-.835-2.63-2-2.63s-2 1.135-2 2.615v.09c0 1.5.835 2.635 2 2.635s2-1.12 2-2.62z"/><path d="m89.605 9.565h1.71v1.16c.4387849-.79944144 1.2731562-1.30159169 2.185-1.315 1.545 0 2.465 1.075 2.465 2.8v5.37h-1.715v-4.87c0-1.135-.5-1.755-1.425-1.755s-1.5.665-1.5 1.77v4.855h-1.71z"/><path d="m97.365 15.28v-.09c0-1.71 1.18-2.555 2.875-2.555.625049-.0028486 1.245317.109003 1.83.33v-.345c0-1.075-.635-1.635-1.725-1.635-.6697699.0179657-1.3265412.1889999-1.92.5l-.5-1.365c.8173613-.42239749 1.7249613-.64029012 2.645-.635.862631-.05780663 1.712508.23208798 2.36.805.568725.6379978.858594 1.476995.805 2.33v4.975h-1.68v-1c-.498704.7334244-1.338592 1.159974-2.225 1.13-.6597825.032901-1.3029441-.213418-1.7719594-.6786279-.4690152-.4652098-.7205656-1.1063434-.6930406-1.7663721zm4.72-.39v-.82c-.479379-.1806179-.987728-.2721206-1.5-.27-1 0-1.56.5-1.56 1.345v.045c-.013813.3448752.1203119.6792344.368631.9189579.2483192.2397235.5871941.3619911.931369.3360421.442919.041645.883329-.1018351 1.216718-.3963918.333389-.2945566.530038-.7139326.543282-1.1586082z"/><path d="m105.655 6.66h1.725v10.92h-1.725z"/><path d="m112.645 12.345v-.105c0-3.205 2-5.4 4.735-5.4 1.255605-.03922425 2.467858.46133065 3.33 1.375l-1.06 1.35c-.595576-.66247432-1.439327-1.04813709-2.33-1.065-1.63 0-2.86 1.5-2.86 3.78v.045c0 2.3 1.26 3.8 2.875 3.8.94 0 1.62-.425 2.36-1.15l1.06 1.255c-.889486.9929839-2.167111 1.5496631-3.5 1.525-2.7-.025-4.61-2.17-4.61-5.41z"/><path d="m121.665 13.645v-.105c0-2.405 1.45-4.13 3.42-4.13 2.175 0 3.325 1.815 3.325 4.22v.59h-5c.15 1.35 1 2.075 2.025 2.075.705145-.0154786 1.372664-.3211986 1.845-.845l.86 1.05c-.707761.8130208-1.73716 1.2737821-2.815 1.26-2.055.005-3.66-1.585-3.66-4.115zm5.07-.605c-.08-1.285-.655-2.19-1.65-2.19s-1.605.83-1.725 2.19z"/><path d="m129.97 9.565h1.71v1.16c.442883-.8002676 1.280448-1.3020435 2.195-1.315 1.54 0 2.465 1.075 2.465 2.8v5.37h-1.725v-4.87c0-1.135-.5-1.755-1.42-1.755s-1.5.665-1.5 1.77v4.855h-1.71z"/><path d="m138.5 15.63v-4.6h-.86v-1.465h.86v-2.165h1.725v2.165h1.785v1.465h-1.785v4.265c0 .62.3.88.845.88.320787.0006212.637371-.0729632.925-.215v1.395c-.436442.233495-.925076.3522126-1.42.345-1.16 0-2.075-.495-2.075-2.07z"/><path d="m143 13.645v-.105c0-2.405 1.45-4.13 3.42-4.13 2.175 0 3.325 1.815 3.325 4.22v.59h-5c.15 1.35 1 2.075 2.025 2.075.705009-.0160691 1.372305-.3216871 1.845-.845l.885 1.05c-.708175.8124621-1.737301 1.2731014-2.815 1.26-2.07.005-3.685-1.585-3.685-4.115zm5.065-.605c-.075-1.285-.65-2.19-1.645-2.19s-1.605.83-1.725 2.19z"/><path d="m151.32 9.565h1.71v1.555c.425-1.03 1.21-1.74 2.405-1.68v1.86h-.075c-1.375 0-2.33.91-2.33 2.725v3.555h-1.71z"/><path d="m160.565 11.03h-.875v-1.42h.875v-.61c-.052402-.66802853.165563-1.329131.605-1.835.46325-.4040025 1.066352-.61042104 1.68-.575.409337-.00074536.816716.05648972 1.21.17v1.435c-.269335-.08212903-.54852-.12753874-.83-.135-.62 0-.955.35-.955 1.105v.455h1.77v1.42h-1.755v6.55h-1.725z"/><path d="m164.665 13.66v-.135c0-2.36 1.575-4.115 3.705-4.115s3.665 1.725 3.665 4.1v.135c0 2.36-1.56 4.12-3.68 4.12s-3.69-1.725-3.69-4.105zm5.675-.03v-.09c0-1.5-.835-2.63-2-2.63s-2 1.135-2 2.615v.09c0 1.5.83 2.635 2 2.635s2-1.12 2-2.62z"/><path d="m173.62 9.565h1.71v1.555c.425-1.03 1.21-1.74 2.405-1.68v1.86h-.075c-1.375 0-2.33.91-2.33 2.725v3.555h-1.71z"/></g></g></svg>