<?xml version="1.0" encoding="UTF-8"?>
<svg width="234px" height="47px" viewBox="0 0 234 47" version="1.1" xmlns="http://www.w3.org/2000/svg" xmlns:xlink="http://www.w3.org/1999/xlink">
    <title>916B76D8-1AFF-40CB-8A6C-FAD6D68B495F</title>
    <g id="Wireframe" stroke="none" stroke-width="1" fill="none" fill-rule="evenodd">
        <g id="Home-opt3" transform="translate(-559.000000, -4178.000000)">
            <g id="Footer-/-dark" transform="translate(0.000000, 3680.000000)">
                <g id="medicine" transform="translate(559.000000, 498.000000)">
                    <line x1="100.88" y1="0" x2="100.88" y2="46.64" id="Path" stroke="#FFFFFF" stroke-width="0.5"></line>
                    <path d="M35.2,7.61 L18.85,7.61 C14.445854,7.61122744 10.5114323,10.3633255 9,14.5 L0,39 L23.66,39 L23,40.78 L31.1,46.64 L43.27,46.64 C48.6330843,46.615538 53.4169552,43.2628418 55.27,38.23 L55.43,37.77 L57.33,39 L71.24,39 C75.7152772,39.006746 79.7145322,36.2072675 81.24,32 L90.08,7.61 L66.56,7.61 L67.18,5.91 L59,0 L46.76,0 C41.89,0 36.88,3 35.2,7.61 Z" id="Path" fill="#F26522" fill-rule="nonzero"></path>
                    <path d="M11.1,15.35 L7,26.5 L9.48,28.25 L6.36,28.25 L3.25,36.73 L26.89,36.73 L25.73,39.91 L31.84,44.3400653 L43.35,44.3400653 C47.8280765,44.3556651 51.8319544,41.5529505 53.35,37.34 L54.46,34.28 L58,36.73 L71.2,36.73 C74.7175814,36.7350053 77.8591765,34.5298857 79.05,31.22 L86.83,9.76 L63.26,9.76 L64.35,6.76 L58.26,2.3 L46.93,2.3 C42.4946113,2.3 38.5301672,5.06691683 37,9.23 L36.8,9.76 L19.12,9.76 C15.5390842,9.75761272 12.3369669,11.9895125 11.1,15.35 Z" id="Path" fill="#231F20" fill-rule="nonzero"></path>
                    <path d="M59.81,12.28 L61.53,7.59 L57.53,4.66999927 L46.88,4.66999927 C43.465193,4.6685648 40.4115649,6.79612525 39.23,10 L35.23,21 L46.41,29.9 L44.14,36.26 L36.78,36.26 L38.78,30.7 L8.05,30.7 L6.68,34.37 L30.29,34.37 L28.57,39 L32.57,41.9400358 L43.29,41.9400358 C46.6604284,41.9500458 49.6756381,39.8465971 50.83,36.68 L54.9,25.62 L43.82,16.8 L46.14,10.4 L53.32,10.4 L51.32,16.1 L82,16.1 L83.37,12.28 L59.81,12.28 Z" id="Path" fill="#F26522" fill-rule="nonzero"></path>
                    <path d="M26.26,28.25 C28.4981215,28.2356679 30.4917198,26.8321748 31.26,24.73 L35,14.67 L31.48,12.1 L19.29,12.1 C16.609273,12.1100084 14.2169681,13.7846218 13.29,16.3 L9.84,25.64 L13.4,28.25 L26.26,28.25 Z M20.51,14.5 L28.51,14.5 L24.48,25.91 L16.39,25.91 L20.51,14.5 Z" id="Shape" fill="#F26522" fill-rule="nonzero"></path>
                    <path d="M70.51,30 C70.0636164,31.2402135 68.8880984,32.0678741 67.57,32.07 L61.62,32.07 L66.62,18.46 L60.13,18.46 L55.24,32 L58.87,34.47 L70.94,34.47 C73.5915101,34.4675741 75.959593,32.8103154 76.87,30.32 L81.19,18.46 L74.64,18.46 L70.51,30 Z" id="Path" fill="#F26522" fill-rule="nonzero"></path>
                    <path d="M79.8,39.05 C79.4534892,39.0526655 79.1202543,38.9168793 78.8742899,38.6727925 C78.6283255,38.4287057 78.49,38.0965211 78.49,37.75 C78.49,37.026507 79.076507,36.44 79.8,36.44 C80.2935052,36.3967584 80.7691888,36.6356033 81.0292786,37.0572317 C81.2893684,37.4788601 81.2893684,38.0111399 81.0292786,38.4327683 C80.7691888,38.8543967 80.2935052,39.0932416 79.8,39.05 Z M79.8,36.59 C79.1637265,36.611974 78.6640666,37.1426626 78.6804201,37.7791054 C78.6967736,38.4155482 79.2230284,38.9198757 79.8595908,38.909144 C80.4961532,38.8984123 81.0051091,38.3766324 81,37.74 C81.0031984,37.4252321 80.8761014,37.1231511 80.648831,36.9053503 C80.4215605,36.6875495 80.114347,36.5734162 79.8,36.59 L79.8,36.59 Z M80.12,37.91 L80.46,38.4 L80.11,38.4 L79.81,37.96 L79.57,37.96 L79.57,38.4 L79.26,38.4 L79.26,37 L79.88,37 C80.21,37 80.42,37.17 80.42,37.46 C80.4348723,37.6610072 80.3112652,37.8464178 80.12,37.91 L80.12,37.91 Z M79.87,37.28 L79.57,37.28 L79.57,37.69 L79.88,37.69 C80.03,37.69 80.11,37.61 80.11,37.49 C80.11,37.37 80,37.28 79.87,37.28 L79.87,37.28 Z" id="Shape" fill="#F26522" fill-rule="nonzero"></path>
                    <polygon id="Path" fill="#FFFFFF" fill-rule="nonzero" points="111.68 13.52 115.94 13.52 120.31 21.52 124.62 13.57 128.9 13.57 128.9 33.17 124.9 33.17 124.9 20.6 120.28 28.7 120.19 28.7 115.6 20.7 115.6 33.12 111.65 33.12"></polygon>
                    <polygon id="Path" fill="#FFFFFF" fill-rule="nonzero" points="132.93 13.52 145.56 13.52 145.56 17.19 137 17.19 137 21.42 144.56 21.42 144.56 25.08 137 25.08 137 29.45 145.71 29.45 145.71 33.12 132.93 33.12"></polygon>
                    <path d="M149,13.52 L155.33,13.52 C161.02,13.52 164.68,17.44 164.68,23.18 L164.68,23.43 C164.68,29.17 161.02,33.12 155.33,33.12 L149,33.12 L149,13.52 Z M153.06,17.19 L153.06,29.45 L155.3,29.45 C158.38,29.45 160.48,27.3 160.48,23.4 L160.48,23.26 C160.48,19.37 158.38,17.19 155.3,17.19 L153.06,17.19 Z" id="Shape" fill="#FFFFFF" fill-rule="nonzero"></path>
                    <polygon id="Path" fill="#FFFFFF" fill-rule="nonzero" points="168 13.52 172 13.52 172 33.12 168 33.12"></polygon>
                    <path d="M175.32,23.46 L175.32,23.21 C175.32,17.27 179.02,13.21 184.2,13.21 C186.577046,13.1255687 188.874377,14.0736735 190.5,15.81 L188.06,19 C187.073365,17.7928171 185.617727,17.0649979 184.06,17 C181.43,17 179.5,19.44 179.5,23.24 L179.5,23.33 C179.5,27.22 181.5,29.6 184.12,29.6 C185.68,29.6 186.83,28.87 188.12,27.6 L190.55,30.48 C188.904239,32.3718052 186.507154,33.4404294 184,33.4 C178.8,33.4 175.32,29.45 175.32,23.46 Z" id="Path" fill="#FFFFFF" fill-rule="nonzero"></path>
                    <polygon id="Path" fill="#FFFFFF" fill-rule="nonzero" points="193.15 13.52 197.21 13.52 197.21 33.12 193.15 33.12"></polygon>
                    <polygon id="Path" fill="#FFFFFF" fill-rule="nonzero" points="201.25 13.52 205 13.52 212.5 24.94 212.5 13.52 216.5 13.52 216.5 33.12 213 33.12 205.24 21.28 205.24 33.12 201.24 33.12"></polygon>
                    <polygon id="Path" fill="#FFFFFF" fill-rule="nonzero" points="220.49 13.52 233.11 13.52 233.11 17.19 224.52 17.19 224.52 21.42 232.08 21.42 232.08 25.08 224.52 25.08 224.52 29.45 233.22 29.45 233.22 33.12 220.49 33.12"></polygon>
                </g>
            </g>
        </g>
    </g>
</svg>