<?xml version="1.0" encoding="UTF-8"?>
<svg width="260px" height="51px" viewBox="0 0 260 51" version="1.1" xmlns="http://www.w3.org/2000/svg" xmlns:xlink="http://www.w3.org/1999/xlink">
    <title>9C82BB03-DB09-4FEC-B5C7-F837EFC14061</title>
    <g id="Wireframe" stroke="none" stroke-width="1" fill="none" fill-rule="evenodd">
        <g id="Home-opt3" transform="translate(-9.000000, -24.000000)" fill-rule="nonzero">
            <g id="NCWR_Logo_horz_RGB_tm-01" transform="translate(9.000000, 24.000000)">
                <g id="Group-2" transform="translate(0.000000, 0.290000)">
                    <path d="M13.395,14.54 C13.3949793,16.1252853 12.4389417,17.5540853 10.9735496,18.1588624 C9.50815746,18.7636394 7.82268857,18.4250066 6.70459688,17.3011737 C5.58650518,16.1773409 5.2565091,14.4901597 5.86878337,13.0278843 C6.48105765,11.5656088 7.91473543,10.6169015 9.5,10.6249486 C11.6610527,10.6277547 13.4122453,12.3789473 13.415,14.54" id="Path" fill="#FA6400"></path>
                    <path d="M40.055,23.21 C40.055,25.0353011 38.5753011,26.515 36.75,26.515 C34.9246989,26.515 33.445,25.0353011 33.445,23.21 C33.445,21.3846989 34.9246989,19.905 36.75,19.905 C38.5753011,19.905 40.055,21.3846989 40.055,23.21" id="Path" fill="#FA6400"></path>
                    <path d="M30.865,8.665 C30.865,15.44 27.21,18.22 26.295,18.81 C24.295,13.05 25.525,7.02 25.57,6.81 C24,10.46 24.5,15.03 24.915,17.71 C23.1770128,15.8593827 22.1896422,13.4283835 22.145,10.89 C22.145,4.965 26.525,1.77635684e-15 26.525,1.77635684e-15 C26.525,1.77635684e-15 30.85,2.57 30.865,8.69" id="Path" fill="#509F6E"></path>
                    <path d="M8.525,25.305 C12.1571319,24.4922147 15.9611312,25.3998615 18.835,27.765 C13.645,30.965 7.1,31.3 6.885,31.3 C10.885,32.345 15.885,30.16 18.385,29.16 C17.385,30.56 14.73,33.505 11.575,34.2 C6.435,35.34 8.8817842e-15,32.275 8.8817842e-15,32.275 C8.8817842e-15,32.275 1.125,27.075 8.5,25.305" id="Path" fill="#509F6E"></path>
                    <path d="M38.835,37.39 C35.7904417,37.4300954 32.8983086,36.0606233 31,33.68 C35.69,32.005 41,32.85 41.145,32.88 C38.105,31.38 33.755,32.265 31.585,32.64 C32.64,31.695 35.245,29.79 37.88,29.77 C42.185,29.735 46.8,33.27 46.8,33.27 C46.8,33.27 45.025,37.235 38.8,37.39" id="Path" fill="#509F6E"></path>
                    <path d="M23.54,45.095 C30.105,14.54 6.565,2.265 6.565,2.265 C6.565,2.265 17,12.245 18.835,21.125 C18.835,21.125 11.785,17.705 7.185,22.75 C7.185,22.75 14.87,18.455 20.125,27.905 C24.375,35.545 23.54,45.095 23.54,45.095" id="Path" fill="#000000"></path>
                    <path d="M27.71,49.445 C19.17,24.41 38.605,11.765 38.605,11.765 C38.605,11.765 30,22.13 29.87,28.545 C29.87,28.545 35.45,24.995 39.68,29.045 C39.68,29.045 32.51,26.195 29.025,34.66 C26.21,41.5 27.71,49.445 27.71,49.445" id="Path" fill="#000000"></path>
                    <path d="M19.255,43.405 L18.835,43.405 L18.835,43.21 L19.89,43.21 L19.89,43.415 L19.5,43.415 L19.5,44.77 L19.28,44.77 L19.255,43.405 Z M20.19,43.2 L20.43,43.2 L20.88,44.005 L21.33,43.2 L21.565,43.2 L21.565,44.76 L21.355,44.76 L21.355,43.565 L20.885,44.395 L20.425,43.565 L20.425,44.76 L20.21,44.76 L20.19,43.2 Z" id="Shape" fill="#000000"></path>
                </g>
                <g id="Group" transform="translate(53.500000, 39.500000)" fill="#8F9293">
                    <path d="M0.235,2.605 L0.235,2.525 C0.235,1.18 1.08,0.24 2.265,0.24 C3.45,0.24 4.29,1.175 4.29,2.515 L4.29,2.59 C4.29,3.93 3.445,4.88 2.26,4.88 C1.075,4.88 0.235,3.945 0.235,2.605 M3.33,2.605 L3.33,2.56 C3.33,1.675 2.88,1.12 2.26,1.12 C1.64,1.12 1.19,1.67 1.19,2.555 L1.19,2.6 C1.19,3.485 1.645,4.04 2.265,4.04 C2.885,4.04 3.33,3.49 3.33,2.605" id="Shape"></path>
                    <polygon id="Path" points="5.145 0.32 6.07 0.32 6.07 2.25 7.54 0.32 8.635 0.32 7.13 2.22 8.7 4.8 7.61 4.8 6.49 2.955 6.07 3.48 6.07 4.8 5.145 4.8"></polygon>
                    <polygon id="Path" points="9.315 0.32 10.245 0.32 10.245 3.95 12.055 3.95 12.055 4.8 9.315 4.8"></polygon>
                    <path d="M14.055,0.29 L14.94,0.29 L16.545,4.79 L15.585,4.79 L15.255,3.82 L13.71,3.82 L13.385,4.79 L12.45,4.79 L14.055,0.29 Z M14.97,3.01 L14.47,1.545 L14,3 L14.97,3.01 Z" id="Shape"></path>
                    <polygon id="Path" points="17.22 0.32 18.15 0.32 18.15 2.115 19.625 2.115 19.625 0.32 20.55 0.32 20.55 4.8 19.625 4.8 19.625 2.975 18.15 2.975 18.15 4.8 17.22 4.8"></polygon>
                    <path d="M21.405,2.605 L21.405,2.525 C21.405,1.18 22.25,0.24 23.435,0.24 C24.62,0.24 25.435,1.175 25.435,2.515 L25.435,2.59 C25.435,3.93 24.59,4.88 23.405,4.88 C22.22,4.88 21.38,3.945 21.38,2.605 M24.475,2.605 L24.475,2.56 C24.475,1.675 24.025,1.12 23.405,1.12 C22.785,1.12 22.335,1.67 22.335,2.555 L22.335,2.6 C22.335,3.485 22.79,4.04 23.41,4.04 C24.03,4.04 24.475,3.49 24.475,2.605" id="Shape"></path>
                    <polygon id="Path" points="26.315 0.32 27.285 0.32 28.285 2.135 29.27 0.32 30.25 0.32 30.25 4.8 29.345 4.8 29.345 1.94 28.285 3.79 28.265 3.79 27.215 1.95 27.215 4.8 26.315 4.8"></polygon>
                    <path d="M32.535,0.29 L33.42,0.29 L35.025,4.79 L34.065,4.79 L33.73,3.82 L32.19,3.82 L31.86,4.79 L30.925,4.79 L32.535,0.29 Z M33.45,3 L32.95,1.535 L32.45,3 L33.45,3 Z" id="Shape"></path>
                    <path d="M36.925,4.2 L37.5,3.5 C37.7982055,3.79713617 38.194774,3.97496959 38.615,4 C38.975,4 39.19,3.82 39.19,3.56 C39.19,3.335 39.065,3.195 38.42,2.955 C37.63,2.645 37.135,2.345 37.135,1.575 C37.1372907,1.20018894 37.2976281,0.843743776 37.5765593,0.593372101 C37.8554904,0.343000426 38.2271185,0.221947558 38.6,0.26 C39.1350117,0.256081095 39.6521745,0.452246277 40.05,0.81 L39.5,1.5 C39.2381446,1.25705646 38.9012738,1.11066756 38.545,1.085 C38.225,1.085 38.045,1.245 38.045,1.475 C38.045,1.735 38.2,1.855 38.9,2.145 C39.68,2.45 40.105,2.785 40.105,3.48 C40.1043707,3.86422138 39.9406531,4.23011115 39.6545896,4.48661479 C39.3685261,4.74311843 38.9870156,4.86611651 38.605,4.825 C37.9877447,4.82475417 37.3939129,4.58865238 36.945,4.165" id="Path"></path>
                    <polygon id="Path" points="41.655 1.175 40.525 1.175 40.525 0.32 43.7 0.32 43.7 1.175 42.575 1.175 42.575 4.8 41.655 4.8"></polygon>
                    <path d="M45.255,0.29 L46.135,0.29 L47.745,4.79 L46.785,4.79 L46.45,3.82 L44.91,3.82 L44.58,4.79 L43.645,4.79 L45.255,0.29 Z M46.17,3.01 L45.67,1.545 L45.17,3.01 L46.17,3.01 Z" id="Shape"></path>
                    <polygon id="Path" points="48.815 1.175 47.69 1.175 47.69 0.32 50.865 0.32 50.865 1.175 49.74 1.175 49.74 4.8 48.815 4.8"></polygon>
                    <polygon id="Path" points="51.61 0.32 54.5 0.32 54.5 1.155 52.53 1.155 52.53 2.125 54.26 2.125 54.26 2.965 52.53 2.965 52.53 3.96 54.525 3.96 54.525 4.8 51.61 4.8"></polygon>
                    <path d="M56.865,3.06 L56.865,0.32 L57.795,0.32 L57.795,3.065 C57.795,3.7 58.095,4.015 58.575,4.015 C59.055,4.015 59.355,3.705 59.355,3.085 L59.355,0.32 L60.28,0.32 L60.28,3.04 C60.28,4.275 59.6,4.87 58.56,4.87 C57.52,4.87 56.865,4.27 56.865,3.06" id="Path"></path>
                    <polygon id="Path" points="61.235 0.32 62.085 0.32 63.805 2.93 63.805 0.32 64.71 0.32 64.71 4.8 63.92 4.8 62.145 2.09 62.145 4.8 61.235 4.8"></polygon>
                    <polygon id="Path" points="65.76 0.32 66.69 0.32 66.69 4.805 65.76 4.805"></polygon>
                    <polygon id="Path" points="67.39 0.32 68.4 0.32 69.345 3.405 70.295 0.32 71.275 0.32 69.76 4.825 68.905 4.825"></polygon>
                    <polygon id="Path" points="71.945 0.32 74.835 0.32 74.835 1.155 72.87 1.155 72.87 2.125 74.6 2.125 74.6 2.965 72.87 2.965 72.87 3.96 74.86 3.96 74.86 4.8 71.945 4.8"></polygon>
                    <path d="M75.71,0.32 L77.395,0.32 C77.8405192,0.293623994 78.2780599,0.446673214 78.61,0.745 C78.8716773,1.02627086 79.008701,1.40128321 78.99,1.785 L78.99,1.81 C79.0224805,2.38448185 78.6872633,2.91641329 78.155,3.135 L79.11,4.8 L78.045,4.8 L77.22,3.33 L76.635,3.33 L76.635,4.8 L75.71,4.8 L75.71,0.32 Z M77.32,2.51 C77.5110149,2.53541371 77.7034597,2.47476396 77.8453876,2.34442204 C77.9873155,2.21408012 78.0640946,2.02748331 78.055,1.835 C78.055,1.385 77.775,1.16 77.305,1.16 L76.635,1.16 L76.635,2.5 L77.32,2.51 Z" id="Shape"></path>
                    <path d="M79.5,4.2 L80.05,3.515 C80.3482055,3.81213617 80.744774,3.98996959 81.165,4.015 C81.525,4.015 81.74,3.835 81.74,3.575 C81.74,3.35 81.615,3.21 80.975,2.97 C80.18,2.66 79.685,2.36 79.685,1.59 C79.6871498,1.21422282 79.8481655,0.856892174 80.1282396,0.606349627 C80.4083138,0.355807079 80.781305,0.23543771 81.155,0.275 C81.6884653,0.271361752 82.2039646,0.46757256 82.6,0.825 L82.1,1.53 C81.8381446,1.28705646 81.5012738,1.14066756 81.145,1.115 C80.825,1.115 80.645,1.275 80.645,1.505 C80.645,1.765 80.795,1.885 81.495,2.175 C82.275,2.48 82.7,2.815 82.7,3.51 C82.6993707,3.89422138 82.5356531,4.26011115 82.2495896,4.51661479 C81.9635261,4.77311843 81.5820156,4.89611651 81.2,4.855 C80.5696469,4.86644349 79.9597129,4.6314395 79.5,4.2" id="Path"></path>
                    <polygon id="Path" points="83.515 0.32 84.445 0.32 84.445 4.805 83.515 4.805"></polygon>
                    <polygon id="Path" points="86.345 1.175 85.215 1.175 85.215 0.32 88.395 0.32 88.395 1.175 87.265 1.175 87.265 4.8 86.345 4.8"></polygon>
                    <polygon id="Path" points="90.185 3.035 88.72 0.32 89.775 0.32 90.655 2.08 91.545 0.32 92.57 0.32 91.11 3.02 91.11 4.8 90.185 4.8"></polygon>
                </g>
                <polygon id="Path" fill="#000000" points="53.4 22.305 55.74 22.305 58.345 31.97 61.065 22.265 62.97 22.265 65.71 31.97 68.295 22.305 70.6 22.305 66.715 35.7 64.715 35.7 62 26.3 59.3 35.7 57.3 35.7"></polygon>
                <polygon id="Path" fill="#000000" points="72.575 22.305 80.965 22.305 80.965 24.305 74.785 24.305 74.785 27.92 80.285 27.92 80.285 29.92 74.785 29.92 74.785 33.61 81.045 33.61 81.045 35.61 72.575 35.61"></polygon>
                <polygon id="Path" fill="#000000" points="83.38 22.305 85.59 22.305 85.59 33.585 91.3 33.585 91.3 35.625 83.38 35.625"></polygon>
                <polygon id="Path" fill="#000000" points="93.335 22.305 95.54 22.305 95.54 33.585 101.25 33.585 101.25 35.625 93.335 35.625"></polygon>
                <polygon id="Path" fill="#000000" points="103.285 22.305 105.32 22.305 111.2 31.17 111.2 22.305 113.37 22.305 113.37 35.625 111.5 35.625 105.45 26.47 105.45 35.625 103.285 35.625"></polygon>
                <polygon id="Path" fill="#000000" points="116.24 22.305 124.63 22.305 124.63 24.305 118.445 24.305 118.445 27.92 123.945 27.92 123.945 29.92 118.445 29.92 118.445 33.61 124.705 33.61 124.705 35.61 116.24 35.61"></polygon>
                <path d="M126.095,33.87 L127.425,32.215 C128.425,33.11 129.52,33.795 130.925,33.795 C132.2,33.795 133.035,33.075 133.035,32.105 C133.035,31.245 132.58,30.715 130.465,29.935 C127.935,28.985 126.64,28.05 126.64,25.935 L126.64,25.895 C126.64,23.71 128.375,22.165 130.845,22.165 C132.391465,22.1414383 133.889142,22.7061948 135.035,23.745 L133.775,25.44 C132.956223,24.675169 131.893892,24.2236781 130.775,24.165 C129.575,24.165 128.835,24.83 128.835,25.705 C128.835,26.64 129.335,27.135 131.595,28.01 C134.065,28.96 135.21,30.01 135.21,31.925 L135.21,31.965 C135.21,34.305 133.38,35.8100309 130.89,35.8100309 C129.099448,35.8153775 127.378074,35.1189298 126.095,33.87 L126.095,33.87 Z" id="Path" fill="#000000"></path>
                <path d="M136.39,33.87 L137.72,32.215 C138.72,33.11 139.815,33.795 141.22,33.795 C142.495,33.795 143.335,33.075 143.335,32.105 C143.335,31.245 142.875,30.715 140.765,29.935 C138.235,28.985 136.94,28.05 136.94,25.935 L136.94,25.895 C136.94,23.71 138.67,22.165 141.145,22.165 C142.690097,22.1407015 144.186474,22.7056419 145.33,23.745 L144.075,25.44 C143.25575,24.6758976 142.193696,24.2245248 141.075,24.165 C139.88,24.165 139.135,24.83 139.135,25.705 C139.135,26.64 139.635,27.135 141.895,28.01 C144.37,28.96 145.51,30.01 145.51,31.925 L145.51,31.965 C145.51,34.305 143.685,35.8100556 141.19,35.8100556 C139.397616,35.8172231 137.674013,35.1206002 136.39,33.87 L136.39,33.87 Z" id="Path" fill="#000000"></path>
                <path d="M158.875,34.195 C157.939689,35.2147112 156.623628,35.8012364 155.24,35.815 C152.995,35.815 151.285,34.315 151.285,32.105 L151.285,32.045 C151.285,30.37 152.235,29.115 153.89,28.22 C153.13,27.155 152.77,26.3 152.77,25.33 L152.77,25.27 C152.77,23.58 154.1,22.075 156.23,22.075 C157.080892,22.0194283 157.916563,22.3202545 158.536806,22.9054071 C159.157049,23.4905598 159.505979,24.3073166 159.5,25.16 L159.5,25.215 C159.5,26.89 158.455,27.955 156.835,28.715 L158.89,31.17 C159.321642,30.4017077 159.692765,29.600951 160,28.775 L161.675,29.5 C161.27702,30.6031133 160.765966,31.6620856 160.15,32.66 L161.96,34.755 L160.34,35.875 L158.875,34.195 Z M157.695,32.845 L155.05,29.63 C154.139,30.0512995 153.540501,30.947117 153.5,31.95 L153.5,32 C153.479318,32.5329549 153.684784,33.0498384 154.065714,33.4231494 C154.446643,33.7964605 154.967572,33.991443 155.5,33.96 C156.354371,33.9078513 157.148996,33.5042036 157.695,32.845 L157.695,32.845 Z M157.525,25.31 L157.525,25.27 C157.552957,24.9007365 157.425106,24.5366238 157.172429,24.2658992 C156.919753,23.9951746 156.565312,23.8425458 156.195,23.845 C155.803969,23.8412066 155.429174,24.001131 155.161341,24.2860601 C154.893507,24.5709892 154.75705,24.9549512 154.785,25.345 L154.785,25.38 C154.785,26.05 155.035,26.6 155.72,27.475 C156.935,26.925 157.525,26.24 157.525,25.31 Z" id="Shape" fill="#000000"></path>
                <path d="M168.16,22.305 L173,22.305 C174.306089,22.2350364 175.586533,22.6864288 176.56,23.56 C177.308045,24.3556521 177.704484,25.4188288 177.66,26.51 L177.66,26.565 C177.739609,28.341477 176.605934,29.9463166 174.905,30.465 L178,35.625 L175.45,35.625 L172.63,30.925 L170.37,30.925 L170.37,35.625 L168.16,35.625 L168.16,22.305 Z M172.745,28.945 C174.46,28.945 175.41,28.03 175.41,26.625 C175.41,25.125 174.44,24.32 172.765,24.32 L170.37,24.32 L170.37,28.965 L172.745,28.945 Z" id="Shape" fill="#000000"></path>
                <polygon id="Path" fill="#000000" points="180.05 22.305 188.445 22.305 188.445 24.305 182.26 24.305 182.26 27.92 187.76 27.92 187.76 29.92 182.26 29.92 182.26 33.61 188.5 33.61 188.5 35.61 180.05 35.61"></polygon>
                <path d="M190.305,29.04 L190.305,28.905 C190.305,24.87 192.805,22.115 196.26,22.115 C197.84042,22.0625254 199.366968,22.6928181 200.45,23.845 L199.115,25.54 C198.370619,24.6967206 197.309408,24.2005229 196.185,24.17 C194.13,24.17 192.59,26.07 192.59,28.925 L192.59,29 C192.59,31.895 194.17,33.78 196.205,33.78 C197.385,33.78 198.24,33.245 199.175,32.33 L200.5,33.89 C199.384301,35.1397898 197.780114,35.8424198 196.105,35.815 C192.705,35.815 190.305,33.11 190.305,29.04 Z" id="Path" fill="#000000"></path>
                <path d="M201.645,29.075 L201.645,28.885 C201.645,24.885 204.1,22.075 207.565,22.075 C211.03,22.075 213.445,24.89 213.445,28.85 L213.445,29.04 C213.445,32.995 211.005,35.85 207.545,35.85 C204.085,35.85 201.645,33.035 201.645,29.075 L201.645,29.075 Z M211.145,29.04 L211.145,28.905 C211.145,26.035 209.62,24.13 207.53,24.13 C205.44,24.13 203.915,26.015 203.915,28.885 L203.915,29 C203.915,31.875 205.455,33.775 207.55,33.775 C209.645,33.775 211.16,31.91 211.16,29.04 L211.145,29.04 Z" id="Shape" fill="#000000"></path>
                <polygon id="Path" fill="#000000" points="214.165 22.305 216.56 22.305 219.835 32.35 223.11 22.305 225.45 22.305 220.825 35.7 218.77 35.7"></polygon>
                <polygon id="Path" fill="#000000" points="227.33 22.305 235.72 22.305 235.72 24.305 229.535 24.305 229.535 27.92 235.035 27.92 235.035 29.92 229.535 29.92 229.535 33.61 235.795 33.61 235.795 35.61 227.33 35.61"></polygon>
                <path d="M238.135,22.305 L242.95,22.305 C244.25285,22.2366191 245.529602,22.6879778 246.5,23.56 C247.250011,24.3544295 247.64677,25.4184655 247.6,26.51 L247.6,26.565 C247.679609,28.341477 246.545934,29.9463166 244.845,30.465 L248,35.625 L245.43,35.625 L242.615,30.925 L240.35,30.925 L240.35,35.625 L238.14,35.625 L238.135,22.305 Z M242.72,28.945 C244.435,28.945 245.385,28.03 245.385,26.625 C245.385,25.125 244.415,24.32 242.74,24.32 L240.345,24.32 L240.345,28.965 L242.72,28.945 Z" id="Shape" fill="#000000"></path>
                <polygon id="Path" fill="#000000" points="252.865 30.315 248.365 22.315 250.865 22.315 254 28.07 257.1 22.305 259.555 22.305 255.085 30.305 255.085 35.625 252.86 35.625"></polygon>
                <polygon id="Path" fill="#000000" points="54 7 55.62 7 60.295 14.05 60.295 7 62 7 62 17.58 60.5 17.58 55.705 10.305 55.705 17.58 54 17.58"></polygon>
                <path d="M63.64,15.28 L63.64,15.19 C63.64,13.48 64.82,12.635 66.515,12.635 C67.1400489,12.6321514 67.7603167,12.744003 68.345,12.965 L68.345,12.62 C68.345,11.545 67.71,10.985 66.62,10.985 C65.9502301,11.0029657 65.2934588,11.1739999 64.7,11.485 L64.2,10.12 C65.0171508,9.69703732 65.9248923,9.47911074 66.845,9.485 C67.7075567,9.42775669 68.5572228,9.71757926 69.205,10.29 C69.7663171,10.9258195 70.0522599,11.7584705 70,12.605 L70,17.58 L68.32,17.58 L68.32,16.58 C67.8212955,17.3134244 66.981408,17.739974 66.095,17.71 C65.4396171,17.7397167 64.8016492,17.4941169 64.3353793,17.0325952 C63.8691095,16.5710735 63.6169928,15.9356528 63.64,15.28 L63.64,15.28 Z M68.36,14.89 L68.36,14.07 C67.8804423,13.8900294 67.3722138,13.7985483 66.86,13.799983 C65.86,13.799983 65.305,14.3 65.305,15.145 L65.305,15.19 C65.291187,15.5348752 65.4253119,15.8692344 65.673631,16.1089579 C65.9219502,16.3486814 66.2608251,16.470949 66.605,16.445 C67.0471,16.4851811 67.4861727,16.3410377 67.818434,16.0466409 C68.1506953,15.7522442 68.3466572,15.3337217 68.36,14.89 L68.36,14.89 Z" id="Shape" fill="#000000"></path>
                <path d="M72.11,15.63 L72.11,11.03 L71.25,11.03 L71.25,9.565 L72.11,9.565 L72.11,7.4 L73.835,7.4 L73.835,9.565 L75.62,9.565 L75.62,11.03 L73.835,11.03 L73.835,15.295 C73.835,15.915 74.14,16.175 74.685,16.175 C75.0042027,16.1757579 75.3191933,16.1021459 75.605,15.96 L75.605,17.355 C75.1687959,17.5891172 74.6799978,17.7078745 74.185,17.7 C73,17.7 72.11,17.205 72.11,15.63 L72.11,15.63 Z" id="Path" fill="#000000"></path>
                <path d="M77.21,6.72 L79.025,6.72 L79.025,8.4 L77.21,8.4 L77.21,6.72 Z M77.255,9.565 L79,9.565 L79,17.565 L77.275,17.565 L77.255,9.565 Z" id="Shape" fill="#000000"></path>
                <path d="M80.645,13.66 L80.645,13.525 C80.645,11.165 82.22,9.41 84.35,9.41 C86.48,9.41 88,11.135 88,13.5 L88,13.635 C88,15.995 86.44,17.755 84.32,17.755 C82.2,17.755 80.645,16.04 80.645,13.66 Z M86.32,13.63 L86.32,13.54 C86.32,12.04 85.485,10.91 84.32,10.91 C83.155,10.91 82.32,12.045 82.32,13.525 L82.32,13.615 C82.32,15.115 83.155,16.25 84.32,16.25 C85.485,16.25 86.32,15.13 86.32,13.63 Z" id="Shape" fill="#000000"></path>
                <path d="M89.605,9.565 L91.315,9.565 L91.315,10.725 C91.7537849,9.92555856 92.5881562,9.42340831 93.5,9.41 C95.045,9.41 95.965,10.485 95.965,12.21 L95.965,17.58 L94.25,17.58 L94.25,12.71 C94.25,11.575 93.75,10.955 92.825,10.955 C91.9,10.955 91.325,11.62 91.325,12.725 L91.325,17.58 L89.615,17.58 L89.605,9.565 Z" id="Path" fill="#000000"></path>
                <path d="M97.365,15.28 L97.365,15.19 C97.365,13.48 98.545,12.635 100.24,12.635 C100.865049,12.6321514 101.485317,12.744003 102.07,12.965 L102.07,12.62 C102.07,11.545 101.435,10.985 100.345,10.985 C99.6752301,11.0029657 99.0184588,11.1739999 98.425,11.485 L97.925,10.12 C98.7423613,9.69760251 99.6499613,9.47970988 100.57,9.485 C101.432631,9.42719337 102.282508,9.71708798 102.93,10.29 C103.498725,10.9279978 103.788594,11.766995 103.735,12.62 L103.735,17.595 L102.055,17.595 L102.055,16.595 C101.556296,17.3284244 100.716408,17.754974 99.83,17.725 C99.1702175,17.757901 98.5270559,17.511582 98.0580406,17.0463721 C97.5890254,16.5811623 97.337475,15.9400287 97.365,15.28 L97.365,15.28 Z M102.085,14.89 L102.085,14.07 C101.605621,13.8893821 101.097272,13.7978794 100.585,13.8 C99.585,13.8 99.025,14.3 99.025,15.145 L99.025,15.19 C99.011187,15.5348752 99.1453119,15.8692344 99.393631,16.1089579 C99.6419502,16.3486814 99.9808251,16.470949 100.325,16.445 C100.767919,16.486645 101.208329,16.3431649 101.541718,16.0486082 C101.875107,15.7540516 102.071756,15.3346756 102.085,14.89 L102.085,14.89 Z" id="Shape" fill="#000000"></path>
                <polygon id="Path" fill="#000000" points="105.655 6.66 107.38 6.66 107.38 17.58 105.655 17.58"></polygon>
                <path d="M112.645,12.345 L112.645,12.24 C112.645,9.035 114.645,6.84 117.38,6.84 C118.635605,6.80077575 119.847858,7.30133065 120.71,8.215 L119.65,9.565 C119.054424,8.90252568 118.210673,8.51686291 117.32,8.5 C115.69,8.5 114.46,10 114.46,12.28 L114.46,12.325 C114.46,14.625 115.72,16.125 117.335,16.125 C118.275,16.125 118.955,15.7 119.695,14.975 L120.755,16.23 C119.865514,17.2229839 118.587889,17.7796631 117.255,17.755 C114.555,17.73 112.645,15.585 112.645,12.345 L112.645,12.345 Z" id="Path" fill="#000000"></path>
                <path d="M121.665,13.645 L121.665,13.54 C121.665,11.135 123.115,9.41 125.085,9.41 C127.26,9.41 128.41,11.225 128.41,13.63 L128.41,14.22 L123.41,14.22 C123.56,15.57 124.41,16.295 125.435,16.295 C126.140145,16.2795214 126.807664,15.9738014 127.28,15.45 L128.14,16.5 C127.432239,17.3130208 126.40284,17.7737821 125.325,17.76 C123.27,17.765 121.665,16.175 121.665,13.645 L121.665,13.645 Z M126.735,13.04 C126.655,11.755 126.08,10.85 125.085,10.85 C124.09,10.85 123.48,11.68 123.36,13.04 L126.735,13.04 Z" id="Shape" fill="#000000"></path>
                <path d="M129.97,9.565 L131.68,9.565 L131.68,10.725 C132.122883,9.9247324 132.960448,9.4229565 133.875,9.41 C135.415,9.41 136.34,10.485 136.34,12.21 L136.34,17.58 L134.615,17.58 L134.615,12.71 C134.615,11.575 134.115,10.955 133.195,10.955 C132.275,10.955 131.695,11.62 131.695,12.725 L131.695,17.58 L129.985,17.58 L129.97,9.565 Z" id="Path" fill="#000000"></path>
                <path d="M138.5,15.63 L138.5,11.03 L137.64,11.03 L137.64,9.565 L138.5,9.565 L138.5,7.4 L140.225,7.4 L140.225,9.565 L142.01,9.565 L142.01,11.03 L140.225,11.03 L140.225,15.295 C140.225,15.915 140.525,16.175 141.07,16.175 C141.390787,16.1756212 141.707371,16.1020368 141.995,15.96 L141.995,17.355 C141.558558,17.588495 141.069924,17.7072126 140.575,17.7 C139.415,17.7 138.5,17.205 138.5,15.63 L138.5,15.63 Z" id="Path" fill="#000000"></path>
                <path d="M143,13.645 L143,13.54 C143,11.135 144.45,9.41 146.42,9.41 C148.595,9.41 149.745,11.225 149.745,13.63 L149.745,14.22 L144.745,14.22 C144.895,15.57 145.745,16.295 146.77,16.295 C147.475009,16.2789309 148.142305,15.9733129 148.615,15.45 L149.5,16.5 C148.791825,17.3124621 147.762699,17.7731014 146.685,17.76 C144.615,17.765 143,16.175 143,13.645 L143,13.645 Z M148.065,13.04 C147.99,11.755 147.415,10.85 146.42,10.85 C145.425,10.85 144.815,11.68 144.695,13.04 L148.065,13.04 Z" id="Shape" fill="#000000"></path>
                <path d="M151.32,9.565 L153.03,9.565 L153.03,11.12 C153.455,10.09 154.24,9.38 155.435,9.44 L155.435,11.3 L155.36,11.3 C153.985,11.3 153.03,12.21 153.03,14.025 L153.03,17.58 L151.32,17.58 L151.32,9.565 Z" id="Path" fill="#000000"></path>
                <path d="M160.565,11.03 L159.69,11.03 L159.69,9.61 L160.565,9.61 L160.565,9 C160.512598,8.33197147 160.730563,7.670869 161.17,7.165 C161.63325,6.7609975 162.236352,6.55457896 162.85,6.59 C163.259337,6.58925464 163.666716,6.64648972 164.06,6.76 L164.06,8.195 C163.790665,8.11287097 163.51148,8.06746126 163.23,8.06 C162.61,8.06 162.275,8.41 162.275,9.165 L162.275,9.62 L164.045,9.62 L164.045,11.04 L162.29,11.04 L162.29,17.59 L160.565,17.59 L160.565,11.03 Z" id="Path" fill="#000000"></path>
                <path d="M164.665,13.66 L164.665,13.525 C164.665,11.165 166.24,9.41 168.37,9.41 C170.5,9.41 172.035,11.135 172.035,13.51 L172.035,13.645 C172.035,16.005 170.475,17.765 168.355,17.765 C166.235,17.765 164.665,16.04 164.665,13.66 Z M170.34,13.63 L170.34,13.54 C170.34,12.04 169.505,10.91 168.34,10.91 C167.175,10.91 166.34,12.045 166.34,13.525 L166.34,13.615 C166.34,15.115 167.17,16.25 168.34,16.25 C169.51,16.25 170.34,15.13 170.34,13.63 Z" id="Shape" fill="#000000"></path>
                <path d="M173.62,9.565 L175.33,9.565 L175.33,11.12 C175.755,10.09 176.54,9.38 177.735,9.44 L177.735,11.3 L177.66,11.3 C176.285,11.3 175.33,12.21 175.33,14.025 L175.33,17.58 L173.62,17.58 L173.62,9.565 Z" id="Path" fill="#000000"></path>
            </g>
        </g>
    </g>
</svg>