<?xml version="1.0" encoding="UTF-8"?>
<svg width="207px" height="39px" viewBox="0 0 207 39" version="1.1" xmlns="http://www.w3.org/2000/svg" xmlns:xlink="http://www.w3.org/1999/xlink">
    <title>D416BE8E-1625-4C1F-A142-A6C1FE51B43B</title>
    <g id="Wireframe" stroke="none" stroke-width="1" fill="none" fill-rule="evenodd">
        <g id="iPhone-8-Copy-5" transform="translate(-51.000000, -108.000000)" fill-rule="nonzero">
            <g id="NCWR_Logo_horz_RGB_tm-01" transform="translate(51.000000, 108.000000)">
                <g id="Group" transform="translate(0.500000, 33.500000)" fill="#8F9293">
                    <path d="M0.235,2.605 L0.235,2.525 C0.235,1.18 1.08,0.24 2.265,0.24 C3.45,0.24 4.29,1.175 4.29,2.515 L4.29,2.59 C4.29,3.93 3.445,4.88 2.26,4.88 C1.075,4.88 0.235,3.945 0.235,2.605 M3.33,2.605 L3.33,2.56 C3.33,1.675 2.88,1.12 2.26,1.12 C1.64,1.12 1.19,1.67 1.19,2.555 L1.19,2.6 C1.19,3.485 1.645,4.04 2.265,4.04 C2.885,4.04 3.33,3.49 3.33,2.605" id="Shape"></path>
                    <polygon id="Path" points="5.145 0.32 6.07 0.32 6.07 2.25 7.54 0.32 8.635 0.32 7.13 2.22 8.7 4.8 7.61 4.8 6.49 2.955 6.07 3.48 6.07 4.8 5.145 4.8"></polygon>
                    <polygon id="Path" points="9.315 0.32 10.245 0.32 10.245 3.95 12.055 3.95 12.055 4.8 9.315 4.8"></polygon>
                    <path d="M14.055,0.29 L14.94,0.29 L16.545,4.79 L15.585,4.79 L15.255,3.82 L13.71,3.82 L13.385,4.79 L12.45,4.79 L14.055,0.29 Z M14.97,3.01 L14.47,1.545 L14,3 L14.97,3.01 Z" id="Shape"></path>
                    <polygon id="Path" points="17.22 0.32 18.15 0.32 18.15 2.115 19.625 2.115 19.625 0.32 20.55 0.32 20.55 4.8 19.625 4.8 19.625 2.975 18.15 2.975 18.15 4.8 17.22 4.8"></polygon>
                    <path d="M21.405,2.605 L21.405,2.525 C21.405,1.18 22.25,0.24 23.435,0.24 C24.62,0.24 25.435,1.175 25.435,2.515 L25.435,2.59 C25.435,3.93 24.59,4.88 23.405,4.88 C22.22,4.88 21.38,3.945 21.38,2.605 M24.475,2.605 L24.475,2.56 C24.475,1.675 24.025,1.12 23.405,1.12 C22.785,1.12 22.335,1.67 22.335,2.555 L22.335,2.6 C22.335,3.485 22.79,4.04 23.41,4.04 C24.03,4.04 24.475,3.49 24.475,2.605" id="Shape"></path>
                    <polygon id="Path" points="26.315 0.32 27.285 0.32 28.285 2.135 29.27 0.32 30.25 0.32 30.25 4.8 29.345 4.8 29.345 1.94 28.285 3.79 28.265 3.79 27.215 1.95 27.215 4.8 26.315 4.8"></polygon>
                    <path d="M32.535,0.29 L33.42,0.29 L35.025,4.79 L34.065,4.79 L33.73,3.82 L32.19,3.82 L31.86,4.79 L30.925,4.79 L32.535,0.29 Z M33.45,3 L32.95,1.535 L32.45,3 L33.45,3 Z" id="Shape"></path>
                    <path d="M36.925,4.2 L37.5,3.5 C37.7982055,3.79713617 38.194774,3.97496959 38.615,4 C38.975,4 39.19,3.82 39.19,3.56 C39.19,3.335 39.065,3.195 38.42,2.955 C37.63,2.645 37.135,2.345 37.135,1.575 C37.1372907,1.20018894 37.2976281,0.843743776 37.5765593,0.593372101 C37.8554904,0.343000426 38.2271185,0.221947558 38.6,0.26 C39.1350117,0.256081095 39.6521745,0.452246277 40.05,0.81 L39.5,1.5 C39.2381446,1.25705646 38.9012738,1.11066756 38.545,1.085 C38.225,1.085 38.045,1.245 38.045,1.475 C38.045,1.735 38.2,1.855 38.9,2.145 C39.68,2.45 40.105,2.785 40.105,3.48 C40.1043707,3.86422138 39.9406531,4.23011115 39.6545896,4.48661479 C39.3685261,4.74311843 38.9870156,4.86611651 38.605,4.825 C37.9877447,4.82475417 37.3939129,4.58865238 36.945,4.165" id="Path"></path>
                    <polygon id="Path" points="41.655 1.175 40.525 1.175 40.525 0.32 43.7 0.32 43.7 1.175 42.575 1.175 42.575 4.8 41.655 4.8"></polygon>
                    <path d="M45.255,0.29 L46.135,0.29 L47.745,4.79 L46.785,4.79 L46.45,3.82 L44.91,3.82 L44.58,4.79 L43.645,4.79 L45.255,0.29 Z M46.17,3.01 L45.67,1.545 L45.17,3.01 L46.17,3.01 Z" id="Shape"></path>
                    <polygon id="Path" points="48.815 1.175 47.69 1.175 47.69 0.32 50.865 0.32 50.865 1.175 49.74 1.175 49.74 4.8 48.815 4.8"></polygon>
                    <polygon id="Path" points="51.61 0.32 54.5 0.32 54.5 1.155 52.53 1.155 52.53 2.125 54.26 2.125 54.26 2.965 52.53 2.965 52.53 3.96 54.525 3.96 54.525 4.8 51.61 4.8"></polygon>
                    <path d="M56.865,3.06 L56.865,0.32 L57.795,0.32 L57.795,3.065 C57.795,3.7 58.095,4.015 58.575,4.015 C59.055,4.015 59.355,3.705 59.355,3.085 L59.355,0.32 L60.28,0.32 L60.28,3.04 C60.28,4.275 59.6,4.87 58.56,4.87 C57.52,4.87 56.865,4.27 56.865,3.06" id="Path"></path>
                    <polygon id="Path" points="61.235 0.32 62.085 0.32 63.805 2.93 63.805 0.32 64.71 0.32 64.71 4.8 63.92 4.8 62.145 2.09 62.145 4.8 61.235 4.8"></polygon>
                    <polygon id="Path" points="65.76 0.32 66.69 0.32 66.69 4.805 65.76 4.805"></polygon>
                    <polygon id="Path" points="67.39 0.32 68.4 0.32 69.345 3.405 70.295 0.32 71.275 0.32 69.76 4.825 68.905 4.825"></polygon>
                    <polygon id="Path" points="71.945 0.32 74.835 0.32 74.835 1.155 72.87 1.155 72.87 2.125 74.6 2.125 74.6 2.965 72.87 2.965 72.87 3.96 74.86 3.96 74.86 4.8 71.945 4.8"></polygon>
                    <path d="M75.71,0.32 L77.395,0.32 C77.8405192,0.293623994 78.2780599,0.446673214 78.61,0.745 C78.8716773,1.02627086 79.008701,1.40128321 78.99,1.785 L78.99,1.81 C79.0224805,2.38448185 78.6872633,2.91641329 78.155,3.135 L79.11,4.8 L78.045,4.8 L77.22,3.33 L76.635,3.33 L76.635,4.8 L75.71,4.8 L75.71,0.32 Z M77.32,2.51 C77.5110149,2.53541371 77.7034597,2.47476396 77.8453876,2.34442204 C77.9873155,2.21408012 78.0640946,2.02748331 78.055,1.835 C78.055,1.385 77.775,1.16 77.305,1.16 L76.635,1.16 L76.635,2.5 L77.32,2.51 Z" id="Shape"></path>
                    <path d="M79.5,4.2 L80.05,3.515 C80.3482055,3.81213617 80.744774,3.98996959 81.165,4.015 C81.525,4.015 81.74,3.835 81.74,3.575 C81.74,3.35 81.615,3.21 80.975,2.97 C80.18,2.66 79.685,2.36 79.685,1.59 C79.6871498,1.21422282 79.8481655,0.856892174 80.1282396,0.606349627 C80.4083138,0.355807079 80.781305,0.23543771 81.155,0.275 C81.6884653,0.271361752 82.2039646,0.46757256 82.6,0.825 L82.1,1.53 C81.8381446,1.28705646 81.5012738,1.14066756 81.145,1.115 C80.825,1.115 80.645,1.275 80.645,1.505 C80.645,1.765 80.795,1.885 81.495,2.175 C82.275,2.48 82.7,2.815 82.7,3.51 C82.6993707,3.89422138 82.5356531,4.26011115 82.2495896,4.51661479 C81.9635261,4.77311843 81.5820156,4.89611651 81.2,4.855 C80.5696469,4.86644349 79.9597129,4.6314395 79.5,4.2" id="Path"></path>
                    <polygon id="Path" points="83.515 0.32 84.445 0.32 84.445 4.805 83.515 4.805"></polygon>
                    <polygon id="Path" points="86.345 1.175 85.215 1.175 85.215 0.32 88.395 0.32 88.395 1.175 87.265 1.175 87.265 4.8 86.345 4.8"></polygon>
                    <polygon id="Path" points="90.185 3.035 88.72 0.32 89.775 0.32 90.655 2.08 91.545 0.32 92.57 0.32 91.11 3.02 91.11 4.8 90.185 4.8"></polygon>
                </g>
                <polygon id="Path" fill="#000000" points="0.4 16.305 2.74 16.305 5.345 25.97 8.065 16.265 9.97 16.265 12.71 25.97 15.295 16.305 17.6 16.305 13.715 29.7 11.715 29.7 9 20.3 6.3 29.7 4.3 29.7"></polygon>
                <polygon id="Path" fill="#000000" points="19.575 16.305 27.965 16.305 27.965 18.305 21.785 18.305 21.785 21.92 27.285 21.92 27.285 23.92 21.785 23.92 21.785 27.61 28.045 27.61 28.045 29.61 19.575 29.61"></polygon>
                <polygon id="Path" fill="#000000" points="30.38 16.305 32.59 16.305 32.59 27.585 38.3 27.585 38.3 29.625 30.38 29.625"></polygon>
                <polygon id="Path" fill="#000000" points="40.335 16.305 42.54 16.305 42.54 27.585 48.25 27.585 48.25 29.625 40.335 29.625"></polygon>
                <polygon id="Path" fill="#000000" points="50.285 16.305 52.32 16.305 58.2 25.17 58.2 16.305 60.37 16.305 60.37 29.625 58.5 29.625 52.45 20.47 52.45 29.625 50.285 29.625"></polygon>
                <polygon id="Path" fill="#000000" points="63.24 16.305 71.63 16.305 71.63 18.305 65.445 18.305 65.445 21.92 70.945 21.92 70.945 23.92 65.445 23.92 65.445 27.61 71.705 27.61 71.705 29.61 63.24 29.61"></polygon>
                <path d="M73.095,27.87 L74.425,26.215 C75.425,27.11 76.52,27.795 77.925,27.795 C79.2,27.795 80.035,27.075 80.035,26.105 C80.035,25.245 79.58,24.715 77.465,23.935 C74.935,22.985 73.64,22.05 73.64,19.935 L73.64,19.895 C73.64,17.71 75.375,16.165 77.845,16.165 C79.3914645,16.1414383 80.8891416,16.7061948 82.035,17.745 L80.775,19.44 C79.9562232,18.675169 78.8938918,18.2236781 77.775,18.165 C76.575,18.165 75.835,18.83 75.835,19.705 C75.835,20.64 76.335,21.135 78.595,22.01 C81.065,22.96 82.21,24.01 82.21,25.925 L82.21,25.965 C82.21,28.305 80.38,29.8100309 77.89,29.8100309 C76.0994483,29.8153775 74.3780738,29.1189298 73.095,27.87 L73.095,27.87 Z" id="Path" fill="#000000"></path>
                <path d="M83.39,27.87 L84.72,26.215 C85.72,27.11 86.815,27.795 88.22,27.795 C89.495,27.795 90.335,27.075 90.335,26.105 C90.335,25.245 89.875,24.715 87.765,23.935 C85.235,22.985 83.94,22.05 83.94,19.935 L83.94,19.895 C83.94,17.71 85.67,16.165 88.145,16.165 C89.6900974,16.1407015 91.1864743,16.7056419 92.33,17.745 L91.075,19.44 C90.2557496,18.6758976 89.1936959,18.2245248 88.075,18.165 C86.88,18.165 86.135,18.83 86.135,19.705 C86.135,20.64 86.635,21.135 88.895,22.01 C91.37,22.96 92.51,24.01 92.51,25.925 L92.51,25.965 C92.51,28.305 90.685,29.8100556 88.19,29.8100556 C86.3976164,29.8172231 84.6740133,29.1206002 83.39,27.87 L83.39,27.87 Z" id="Path" fill="#000000"></path>
                <path d="M105.875,28.195 C104.939689,29.2147112 103.623628,29.8012364 102.24,29.815 C99.995,29.815 98.285,28.315 98.285,26.105 L98.285,26.045 C98.285,24.37 99.235,23.115 100.89,22.22 C100.13,21.155 99.77,20.3 99.77,19.33 L99.77,19.27 C99.77,17.58 101.1,16.075 103.23,16.075 C104.080892,16.0194283 104.916563,16.3202545 105.536806,16.9054071 C106.157049,17.4905598 106.505979,18.3073166 106.5,19.16 L106.5,19.215 C106.5,20.89 105.455,21.955 103.835,22.715 L105.89,25.17 C106.321642,24.4017077 106.692765,23.600951 107,22.775 L108.675,23.5 C108.27702,24.6031133 107.765966,25.6620856 107.15,26.66 L108.96,28.755 L107.34,29.875 L105.875,28.195 Z M104.695,26.845 L102.05,23.63 C101.139,24.0512995 100.540501,24.947117 100.5,25.95 L100.5,26 C100.479318,26.5329549 100.684784,27.0498384 101.065714,27.4231494 C101.446643,27.7964605 101.967572,27.991443 102.5,27.96 C103.354371,27.9078513 104.148996,27.5042036 104.695,26.845 L104.695,26.845 Z M104.525,19.31 L104.525,19.27 C104.552957,18.9007365 104.425106,18.5366238 104.172429,18.2658992 C103.919753,17.9951746 103.565312,17.8425458 103.195,17.845 C102.803969,17.8412066 102.429174,18.001131 102.161341,18.2860601 C101.893507,18.5709892 101.75705,18.9549512 101.785,19.345 L101.785,19.38 C101.785,20.05 102.035,20.6 102.72,21.475 C103.935,20.925 104.525,20.24 104.525,19.31 Z" id="Shape" fill="#000000"></path>
                <path d="M115.16,16.305 L120,16.305 C121.306089,16.2350364 122.586533,16.6864288 123.56,17.56 C124.308045,18.3556521 124.704484,19.4188288 124.66,20.51 L124.66,20.565 C124.739609,22.341477 123.605934,23.9463166 121.905,24.465 L125,29.625 L122.45,29.625 L119.63,24.925 L117.37,24.925 L117.37,29.625 L115.16,29.625 L115.16,16.305 Z M119.745,22.945 C121.46,22.945 122.41,22.03 122.41,20.625 C122.41,19.125 121.44,18.32 119.765,18.32 L117.37,18.32 L117.37,22.965 L119.745,22.945 Z" id="Shape" fill="#000000"></path>
                <polygon id="Path" fill="#000000" points="127.05 16.305 135.445 16.305 135.445 18.305 129.26 18.305 129.26 21.92 134.76 21.92 134.76 23.92 129.26 23.92 129.26 27.61 135.5 27.61 135.5 29.61 127.05 29.61"></polygon>
                <path d="M137.305,23.04 L137.305,22.905 C137.305,18.87 139.805,16.115 143.26,16.115 C144.84042,16.0625254 146.366968,16.6928181 147.45,17.845 L146.115,19.54 C145.370619,18.6967206 144.309408,18.2005229 143.185,18.17 C141.13,18.17 139.59,20.07 139.59,22.925 L139.59,23 C139.59,25.895 141.17,27.78 143.205,27.78 C144.385,27.78 145.24,27.245 146.175,26.33 L147.5,27.89 C146.384301,29.1397898 144.780114,29.8424198 143.105,29.815 C139.705,29.815 137.305,27.11 137.305,23.04 Z" id="Path" fill="#000000"></path>
                <path d="M148.645,23.075 L148.645,22.885 C148.645,18.885 151.1,16.075 154.565,16.075 C158.03,16.075 160.445,18.89 160.445,22.85 L160.445,23.04 C160.445,26.995 158.005,29.85 154.545,29.85 C151.085,29.85 148.645,27.035 148.645,23.075 L148.645,23.075 Z M158.145,23.04 L158.145,22.905 C158.145,20.035 156.62,18.13 154.53,18.13 C152.44,18.13 150.915,20.015 150.915,22.885 L150.915,23 C150.915,25.875 152.455,27.775 154.55,27.775 C156.645,27.775 158.16,25.91 158.16,23.04 L158.145,23.04 Z" id="Shape" fill="#000000"></path>
                <polygon id="Path" fill="#000000" points="161.165 16.305 163.56 16.305 166.835 26.35 170.11 16.305 172.45 16.305 167.825 29.7 165.77 29.7"></polygon>
                <polygon id="Path" fill="#000000" points="174.33 16.305 182.72 16.305 182.72 18.305 176.535 18.305 176.535 21.92 182.035 21.92 182.035 23.92 176.535 23.92 176.535 27.61 182.795 27.61 182.795 29.61 174.33 29.61"></polygon>
                <path d="M185.135,16.305 L189.95,16.305 C191.25285,16.2366191 192.529602,16.6879778 193.5,17.56 C194.250011,18.3544295 194.64677,19.4184655 194.6,20.51 L194.6,20.565 C194.679609,22.341477 193.545934,23.9463166 191.845,24.465 L195,29.625 L192.43,29.625 L189.615,24.925 L187.35,24.925 L187.35,29.625 L185.14,29.625 L185.135,16.305 Z M189.72,22.945 C191.435,22.945 192.385,22.03 192.385,20.625 C192.385,19.125 191.415,18.32 189.74,18.32 L187.345,18.32 L187.345,22.965 L189.72,22.945 Z" id="Shape" fill="#000000"></path>
                <polygon id="Path" fill="#000000" points="199.865 24.315 195.365 16.315 197.865 16.315 201 22.07 204.1 16.305 206.555 16.305 202.085 24.305 202.085 29.625 199.86 29.625"></polygon>
                <polygon id="Path" fill="#000000" points="1 1 2.62 1 7.295 8.05 7.295 1 9 1 9 11.58 7.5 11.58 2.705 4.305 2.705 11.58 1 11.58"></polygon>
                <path d="M10.64,9.28 L10.64,9.19 C10.64,7.48 11.82,6.635 13.515,6.635 C14.1400489,6.63215138 14.7603167,6.74400295 15.345,6.965 L15.345,6.62 C15.345,5.545 14.71,4.985 13.62,4.985 C12.9502301,5.00296574 12.2934588,5.17399994 11.7,5.485 L11.2,4.12 C12.0171508,3.69703732 12.9248923,3.47911074 13.845,3.485 C14.7075567,3.42775669 15.5572228,3.71757926 16.205,4.29 C16.7663171,4.92581946 17.0522599,5.75847049 17,6.605 L17,11.58 L15.32,11.58 L15.32,10.58 C14.8212955,11.3134244 13.981408,11.739974 13.095,11.71 C12.4396171,11.7397167 11.8016492,11.4941169 11.3353793,11.0325952 C10.8691095,10.5710735 10.6169928,9.93565275 10.64,9.28 L10.64,9.28 Z M15.36,8.89 L15.36,8.07 C14.8804423,7.89002938 14.3722138,7.79854825 13.86,7.79998299 C12.86,7.79998299 12.305,8.3 12.305,9.145 L12.305,9.19 C12.291187,9.53487524 12.4253119,9.86923443 12.673631,10.1089579 C12.9219502,10.3486814 13.2608251,10.470949 13.605,10.445 C14.0471,10.4851811 14.4861727,10.3410377 14.818434,10.0466409 C15.1506953,9.75224422 15.3466572,9.3337217 15.36,8.89 L15.36,8.89 Z" id="Shape" fill="#000000"></path>
                <path d="M19.11,9.63 L19.11,5.03 L18.25,5.03 L18.25,3.565 L19.11,3.565 L19.11,1.4 L20.835,1.4 L20.835,3.565 L22.62,3.565 L22.62,5.03 L20.835,5.03 L20.835,9.295 C20.835,9.915 21.14,10.175 21.685,10.175 C22.0042027,10.1757579 22.3191933,10.1021459 22.605,9.96 L22.605,11.355 C22.1687959,11.5891172 21.6799978,11.7078745 21.185,11.7 C20,11.7 19.11,11.205 19.11,9.63 L19.11,9.63 Z" id="Path" fill="#000000"></path>
                <path d="M24.21,0.72 L26.025,0.72 L26.025,2.4 L24.21,2.4 L24.21,0.72 Z M24.255,3.565 L26,3.565 L26,11.565 L24.275,11.565 L24.255,3.565 Z" id="Shape" fill="#000000"></path>
                <path d="M27.645,7.66 L27.645,7.525 C27.645,5.165 29.22,3.41 31.35,3.41 C33.48,3.41 35,5.135 35,7.5 L35,7.635 C35,9.995 33.44,11.755 31.32,11.755 C29.2,11.755 27.645,10.04 27.645,7.66 Z M33.32,7.63 L33.32,7.54 C33.32,6.04 32.485,4.91 31.32,4.91 C30.155,4.91 29.32,6.045 29.32,7.525 L29.32,7.615 C29.32,9.115 30.155,10.25 31.32,10.25 C32.485,10.25 33.32,9.13 33.32,7.63 Z" id="Shape" fill="#000000"></path>
                <path d="M36.605,3.565 L38.315,3.565 L38.315,4.725 C38.7537849,3.92555856 39.5881562,3.42340831 40.5,3.41 C42.045,3.41 42.965,4.485 42.965,6.21 L42.965,11.58 L41.25,11.58 L41.25,6.71 C41.25,5.575 40.75,4.955 39.825,4.955 C38.9,4.955 38.325,5.62 38.325,6.725 L38.325,11.58 L36.615,11.58 L36.605,3.565 Z" id="Path" fill="#000000"></path>
                <path d="M44.365,9.28 L44.365,9.19 C44.365,7.48 45.545,6.635 47.24,6.635 C47.8650489,6.63215138 48.4853167,6.74400295 49.07,6.965 L49.07,6.62 C49.07,5.545 48.435,4.985 47.345,4.985 C46.6752301,5.00296574 46.0184588,5.17399994 45.425,5.485 L44.925,4.12 C45.7423613,3.69760251 46.6499613,3.47970988 47.57,3.485 C48.4326309,3.42719337 49.2825083,3.71708798 49.93,4.29 C50.4987254,4.92799778 50.7885935,5.76699505 50.735,6.62 L50.735,11.595 L49.055,11.595 L49.055,10.595 C48.5562955,11.3284244 47.716408,11.754974 46.83,11.725 C46.1702175,11.757901 45.5270559,11.511582 45.0580406,11.0463721 C44.5890254,10.5811623 44.337475,9.94002867 44.365,9.28 L44.365,9.28 Z M49.085,8.89 L49.085,8.07 C48.6056206,7.88938214 48.0972723,7.79787944 47.585,7.8 C46.585,7.8 46.025,8.3 46.025,9.145 L46.025,9.19 C46.011187,9.53487524 46.1453119,9.86923443 46.393631,10.1089579 C46.6419502,10.3486814 46.9808251,10.470949 47.325,10.445 C47.7679193,10.486645 48.2083289,10.3431649 48.5417178,10.0486082 C48.8751067,9.75405156 49.071756,9.33467559 49.085,8.89 L49.085,8.89 Z" id="Shape" fill="#000000"></path>
                <polygon id="Path" fill="#000000" points="52.655 0.66 54.38 0.66 54.38 11.58 52.655 11.58"></polygon>
                <path d="M59.645,6.345 L59.645,6.24 C59.645,3.035 61.645,0.84 64.38,0.84 C65.6356046,0.800775755 66.8478575,1.30133065 67.71,2.215 L66.65,3.565 C66.0544238,2.90252568 65.2106733,2.51686291 64.32,2.5 C62.69,2.5 61.46,4 61.46,6.28 L61.46,6.325 C61.46,8.625 62.72,10.125 64.335,10.125 C65.275,10.125 65.955,9.7 66.695,8.975 L67.755,10.23 C66.8655139,11.2229839 65.5878895,11.7796631 64.255,11.755 C61.555,11.73 59.645,9.585 59.645,6.345 L59.645,6.345 Z" id="Path" fill="#000000"></path>
                <path d="M68.665,7.645 L68.665,7.54 C68.665,5.135 70.115,3.41 72.085,3.41 C74.26,3.41 75.41,5.225 75.41,7.63 L75.41,8.22 L70.41,8.22 C70.56,9.57 71.41,10.295 72.435,10.295 C73.1401452,10.2795214 73.8076639,9.9738014 74.28,9.45 L75.14,10.5 C74.4322391,11.3130208 73.4028396,11.7737821 72.325,11.76 C70.27,11.765 68.665,10.175 68.665,7.645 L68.665,7.645 Z M73.735,7.04 C73.655,5.755 73.08,4.85 72.085,4.85 C71.09,4.85 70.48,5.68 70.36,7.04 L73.735,7.04 Z" id="Shape" fill="#000000"></path>
                <path d="M76.97,3.565 L78.68,3.565 L78.68,4.725 C79.1228828,3.9247324 79.9604479,3.4229565 80.875,3.41 C82.415,3.41 83.34,4.485 83.34,6.21 L83.34,11.58 L81.615,11.58 L81.615,6.71 C81.615,5.575 81.115,4.955 80.195,4.955 C79.275,4.955 78.695,5.62 78.695,6.725 L78.695,11.58 L76.985,11.58 L76.97,3.565 Z" id="Path" fill="#000000"></path>
                <path d="M85.5,9.63 L85.5,5.03 L84.64,5.03 L84.64,3.565 L85.5,3.565 L85.5,1.4 L87.225,1.4 L87.225,3.565 L89.01,3.565 L89.01,5.03 L87.225,5.03 L87.225,9.295 C87.225,9.915 87.525,10.175 88.07,10.175 C88.3907872,10.1756212 88.7073711,10.1020368 88.995,9.96 L88.995,11.355 C88.5585581,11.588495 88.0699237,11.7072126 87.575,11.7 C86.415,11.7 85.5,11.205 85.5,9.63 L85.5,9.63 Z" id="Path" fill="#000000"></path>
                <path d="M90,7.645 L90,7.54 C90,5.135 91.45,3.41 93.42,3.41 C95.595,3.41 96.745,5.225 96.745,7.63 L96.745,8.22 L91.745,8.22 C91.895,9.57 92.745,10.295 93.77,10.295 C94.4750095,10.2789309 95.1423054,9.97331291 95.615,9.45 L96.5,10.5 C95.7918253,11.3124621 94.7626987,11.7731014 93.685,11.76 C91.615,11.765 90,10.175 90,7.645 L90,7.645 Z M95.065,7.04 C94.99,5.755 94.415,4.85 93.42,4.85 C92.425,4.85 91.815,5.68 91.695,7.04 L95.065,7.04 Z" id="Shape" fill="#000000"></path>
                <path d="M98.32,3.565 L100.03,3.565 L100.03,5.12 C100.455,4.09 101.24,3.38 102.435,3.44 L102.435,5.3 L102.36,5.3 C100.985,5.3 100.03,6.21 100.03,8.025 L100.03,11.58 L98.32,11.58 L98.32,3.565 Z" id="Path" fill="#000000"></path>
                <path d="M107.565,5.03 L106.69,5.03 L106.69,3.61 L107.565,3.61 L107.565,3 C107.512598,2.33197147 107.730563,1.670869 108.17,1.165 C108.63325,0.760997497 109.236352,0.554578956 109.85,0.59 C110.259337,0.58925464 110.666716,0.646489721 111.06,0.76 L111.06,2.195 C110.790665,2.11287097 110.51148,2.06746126 110.23,2.06 C109.61,2.06 109.275,2.41 109.275,3.165 L109.275,3.62 L111.045,3.62 L111.045,5.04 L109.29,5.04 L109.29,11.59 L107.565,11.59 L107.565,5.03 Z" id="Path" fill="#000000"></path>
                <path d="M111.665,7.66 L111.665,7.525 C111.665,5.165 113.24,3.41 115.37,3.41 C117.5,3.41 119.035,5.135 119.035,7.51 L119.035,7.645 C119.035,10.005 117.475,11.765 115.355,11.765 C113.235,11.765 111.665,10.04 111.665,7.66 Z M117.34,7.63 L117.34,7.54 C117.34,6.04 116.505,4.91 115.34,4.91 C114.175,4.91 113.34,6.045 113.34,7.525 L113.34,7.615 C113.34,9.115 114.17,10.25 115.34,10.25 C116.51,10.25 117.34,9.13 117.34,7.63 Z" id="Shape" fill="#000000"></path>
                <path d="M120.62,3.565 L122.33,3.565 L122.33,5.12 C122.755,4.09 123.54,3.38 124.735,3.44 L124.735,5.3 L124.66,5.3 C123.285,5.3 122.33,6.21 122.33,8.025 L122.33,11.58 L120.62,11.58 L120.62,3.565 Z" id="Path" fill="#000000"></path>
            </g>
        </g>
    </g>
</svg>